<?xml version="1.0" encoding="UTF-8"?>
<svg id="_迷走中のコピー" data-name="迷走中のコピー" xmlns="http://www.w3.org/2000/svg" viewBox="0 0 200 200">
  <defs>
    <style>
      .cls-1 {
        fill: #d2bf23;
      }

      .cls-2 {
        fill: #fbf7ca;
      }
    </style>
  </defs>
  <circle class="cls-2" cx="100" cy="100" r="100"/>
  <path class="cls-1" d="M104.46,102.87l2.69-13.66c8.88-3.04,18.65-7,29.32-11.88l4.41,8.97,16.66-24.85-29.85-2.01,4.38,8.91c-8.43,3.86-15.96,6.96-22.67,9.44l3.98-20.25h.02c3.72-21.95-5.59-30.21-11.46-33.18-11.37-5.74-28.23-.98-40.09,11.32-14.3,14.83-24.28,37.88-14.62,51.37,4.61,6.44,12.45,9.66,23.46,9.66,7.19,0,15.73-1.38,25.61-4.12l-2.68,13.65c-8.87,3.04-18.64,6.99-29.3,11.88l-4.4-8.96-16.66,24.85,29.85,2.01-4.38-8.91c8.42-3.85,15.94-6.96,22.64-9.43l-3.99,20.27h0c-3.71,21.93,5.59,30.18,11.47,33.15,3.24,1.63,6.92,2.42,10.81,2.42,9.76,0,20.8-4.94,29.28-13.74,14.3-14.83,24.28-37.88,14.62-51.38-7.62-10.65-24.08-12.47-49.09-5.53ZM55.36,81.24c-5.44-7.6.83-25.28,13.69-38.61,8.75-9.07,20.95-13.09,28.38-9.34,5.84,2.95,8.02,10.84,6.17,22.22h0s-5.11,26-5.11,26c-32.02,9.89-40.9,2.82-43.11-.27ZM131.73,152.83c-8.75,9.07-20.95,13.09-28.38,9.34-5.89-2.97-8.06-10.97-6.12-22.52l5.05-25.69c32.04-9.9,40.92-2.83,43.14.26,5.44,7.59-.83,25.28-13.69,38.61Z"/>
</svg>
