<?xml version="1.0" encoding="UTF-8"?>
<svg id="_重要な情報のコピー" data-name="重要な情報のコピー" xmlns="http://www.w3.org/2000/svg" viewBox="0 0 200 200">
  <defs>
    <style>
      .cls-1 {
        fill: #e17b1f;
      }

      .cls-2 {
        fill: #fce4cb;
      }
    </style>
  </defs>
  <circle class="cls-2" cx="100" cy="100" r="100"/>
  <path class="cls-1" d="M164.39,147.4l-9.89-28.23-19.5,22.68,9.27,1.75c-7.84,13.78-22.99,18.12-34.53,14.92-3.55-.99-14.92-5.25-12.54-18.71l14.7-74.76c12.94-.22,23.39-10.81,23.39-23.8s-10.68-23.81-23.81-23.81-23.81,10.68-23.81,23.81c0,9.79,5.94,18.22,14.41,21.87l-14.71,74.82,4.91.96-4.92-.88c-1.95,10.95-7.89,18.05-15.88,18.99-8.86,1.04-18.12-5.59-24.46-17.17l9.25-2.84-21.89-20.38-6.71,29.15,9.61-2.94c8.98,17.9,22,24.29,32.46,24.29,1,0,1.97-.06,2.92-.17,7.15-.84,13.3-4.67,17.75-10.68,3.39,5.57,9.1,9.78,16.65,11.88,3.23.9,6.66,1.36,10.18,1.36,14.15,0,29.52-7.48,37.29-23.97l9.86,1.86ZM97.68,41.25c0-7.61,6.19-13.81,13.81-13.81s13.81,6.19,13.81,13.81-6.19,13.81-13.81,13.81-13.81-6.19-13.81-13.81Z"/>
</svg>
