<?xml version="1.0" encoding="UTF-8"?>
<svg id="_戻って考えるのコピー" data-name="戻って考えるのコピー" xmlns="http://www.w3.org/2000/svg" viewBox="0 0 200 200">
  <defs>
    <style>
      .cls-1 {
        fill: #4265af;
      }

      .cls-2 {
        fill: #cad2eb;
      }
    </style>
  </defs>
  <circle class="cls-2" cx="100" cy="100" r="100"/>
  <path class="cls-1" d="M154.5,119.18l-19.5,22.68,9.27,1.75c-7.84,13.78-22.99,18.12-34.53,14.92-3.55-.99-14.92-5.25-12.54-18.71l16.17-82.23h.02c2.54-14.26-5.19-26.08-19.7-30.12-16.23-4.51-37.75,2.03-47.46,22.62l-9.87-1.86,9.89,28.23,19.5-22.68-9.27-1.75c7.84-13.79,22.99-18.13,34.53-14.92,3.52.98,14.75,5.19,12.58,18.41h0s-16.21,82.43-16.21,82.43l4.91.96-4.92-.88c-2.54,14.26,5.19,26.09,19.7,30.12,3.23.9,6.66,1.36,10.18,1.36,14.15,0,29.52-7.48,37.29-23.97l9.86,1.86-9.89-28.23Z"/>
</svg>
